<svg xmlns="http://www.w3.org/2000/svg" version="1.0" width="656.000000pt" height="657.000000pt" viewBox="0 0 656.000000 657.000000" preserveAspectRatio="xMidYMid meet">

                        <g transform="translate(0.000000,657.000000) scale(0.100000,-0.100000)" fill="#21759A" stroke="none">
                           <path d="M3105 6564 c-324 -24 -595 -77 -857 -165 -1112 -375 -1937 -1321 -2158 -2470 -41 -214 -53 -356 -53 -609 -1 -389 48 -698 165 -1045 274 -813 863 -1487 1637 -1874 812 -408 1782 -449 2636 -114 837 329 1509 1001 1838 1838 335 854 293 1826 -115 2639 -494 985 -1434 1647 -2528 1781 -122 15 -466 27 -565 19z m620 -172 c575 -89 1087 -315 1526 -674 553 -450 949 -1112 1083 -1807 43 -224 51 -313 51 -596 0 -283 -8 -372 -51 -596 -114 -593 -420 -1165 -854 -1599 -434 -434 -1006 -740 -1599 -854 -224 -43 -313 -51 -596 -51 -283 0 -372 8 -596 51 -593 114 -1165 420 -1599 854 -434 434 -740 1006 -854 1599 -43 224 -51 313 -51 596 0 283 8 372 51 596 114 592 420 1166 854 1599 487 488 1155 814 1820 889 52 6 109 13 125 15 17 2 149 3 295 1 204 -2 295 -8 395 -23z"></path>
                           <path d="M3025 6094 c-16 -2 -84 -11 -150 -20 -635 -85 -1270 -433 -1697 -930 -83 -97 -218 -275 -218 -288 0 -11 496 -2 752 15 220 14 234 12 268 -43 36 -59 18 -133 -39 -162 -15 -8 -79 -20 -142 -26 -213 -20 -221 -21 -216 -33 2 -7 228 -681 503 -1499 274 -818 501 -1488 504 -1488 3 0 141 408 307 908 l303 907 -216 590 c-118 324 -216 590 -218 592 -1 2 -74 10 -161 18 -101 10 -167 21 -182 30 -65 43 -71 136 -12 189 l33 29 120 -6 c67 -4 209 -12 316 -18 217 -13 640 -7 932 12 149 10 192 10 217 0 82 -35 87 -154 8 -206 -16 -10 -80 -20 -192 -30 -92 -8 -169 -16 -170 -17 -5 -8 1001 -2976 1006 -2970 4 4 66 207 139 452 74 245 152 497 176 560 132 357 190 676 165 914 -26 258 -92 435 -279 744 -112 185 -153 266 -185 367 -51 164 -45 283 24 423 74 152 197 243 358 266 l81 11 -91 75 c-398 328 -857 535 -1369 616 -100 15 -595 29 -675 18z"></path>
                           <path d="M5744 4595 c41 -295 -11 -690 -138 -1055 -290 -826 -906 -2615 -904 -2622 4 -12 210 126 328 220 126 100 337 312 438 439 308 389 494 817 579 1335 25 148 25 658 0 806 -45 275 -120 528 -226 761 -68 151 -86 178 -77 116z"></path>
                           <path d="M721 4419 c-96 -246 -137 -378 -175 -575 -39 -205 -49 -340 -43 -602 6 -260 19 -366 72 -587 183 -760 677 -1403 1373 -1790 57 -32 105 -55 107 -53 5 4 -1311 3617 -1320 3626 -2 3 -9 -6 -14 -19z"></path>
                           <path d="M3307 2988 c-13 -40 -199 -579 -412 -1198 -213 -619 -388 -1131 -389 -1139 -1 -18 49 -34 234 -71 216 -43 348 -53 618 -47 298 6 501 38 755 118 84 26 96 32 88 47 -5 9 -201 544 -436 1187 -235 644 -428 1171 -430 1173 -1 2 -14 -30 -28 -70z"></path>
                        </g>
                     </svg>