<svg style="display: none;" aria-hidden="true" viewBox="0 0 24 24" xmlns="http://www.w3.org/2000/svg" xmlns:xlink="http://www.w3.org/1999/xlink"><style>:root>svg{display:none}:root>svg:target{display:block}</style><svg viewBox="0 0 24 24" fill="none" id="svg-Cart"><path fill-rule="evenodd" clip-rule="evenodd" d="M3.14909 3.40828C3.0468 3.40057 2.90689 3.39998 2.65422 3.39998H.999976C.502919 3.39998.0999756 2.99704.0999756 2.49998.0999756 2.00292.502919 1.59998.999976 1.59998H2.65422C2.66304 1.59998 2.67185 1.59998 2.68065 1.59998 2.897 1.59996 3.10606 1.59993 3.28433 1.61337 3.48114 1.62819 3.70392 1.66265 3.9329 1.76479 4.2586 1.91007 4.53684 2.1441 4.73579 2.4401 4.87565 2.64818 4.94777 2.86177 4.9961 3.05313 5.03987 3.22646 5.07568 3.43244 5.11272 3.64559 5.11423 3.65426 5.11574 3.66294 5.11725 3.67163L5.36951 5.12211 18.462 5.50966C18.9747 5.52482 19.4118 5.53775 19.7707 5.57727 20.1483 5.61885 20.5145 5.69626 20.8635 5.88221 21.398 6.16693 21.8299 6.61181 22.0986 7.15444 22.2742 7.50882 22.3407 7.87715 22.3711 8.25576 22.4 8.61566 22.4 9.05303 22.4 9.56587V9.63365C22.4 10.1157 22.4 10.5281 22.3735 10.8691 22.3454 11.2288 22.2841 11.5787 22.1238 11.9193 21.8773 12.443 21.4796 12.881 20.9821 13.1769 20.6585 13.3692 20.3162 13.464 19.9608 13.5265 19.624 13.5858 19.2135 13.6255 18.7337 13.6719L9.00572 14.6133C8.51395 14.6609 8.09355 14.7016 7.74393 14.7078 7.37536 14.7142 7.01356 14.6854 6.65274 14.5528 6.10602 14.352 5.63244 13.9912 5.29369 13.5174 5.07011 13.2047 4.94625 12.8635 4.85466 12.5065 4.76779 12.1678 4.69544 11.7517 4.61081 11.2649L3.34387 3.98004C3.30058 3.73111 3.27602 3.59336 3.2509 3.49391 3.24314 3.46317 3.23713 3.44401 3.23349 3.4334 3.22714 3.42628 3.2198 3.4201 3.21169 3.41506 3.20061 3.41329 3.1807 3.41066 3.14909 3.40828zM5.68431 6.93221L6.37839 10.9232C6.47043 11.4524 6.53115 11.7977 6.59823 12.0593 6.66256 12.3101 6.71616 12.4121 6.75792 12.4705 6.88641 12.6502 7.06605 12.787 7.27342 12.8632 7.34082 12.888 7.45336 12.9126 7.71227 12.908 7.98222 12.9033 8.33129 12.8702 8.86593 12.8184L18.5273 11.8835C19.0491 11.833 19.3893 11.7994 19.6489 11.7537 19.8975 11.71 20.0013 11.6658 20.0621 11.6297 20.2509 11.5175 20.4017 11.3513 20.4952 11.1527 20.5254 11.0887 20.5593 10.9811 20.5789 10.7294 20.5993 10.4666 20.6 10.1248 20.6 9.60048 20.6 9.0436 20.5993 8.67904 20.5769 8.39979 20.5553 8.13117 20.518 8.01855 20.4857 7.9534 20.3837 7.74757 20.2199 7.57883 20.0172 7.47083 19.953 7.43664 19.8415 7.39595 19.5737 7.36645 19.2952 7.33579 18.9308 7.32432 18.3742 7.30785L5.68431 6.93221zM8.49998 17.9C7.89246 17.9 7.39998 18.3925 7.39998 19 7.39998 19.6075 7.89246 20.1 8.49998 20.1 9.10749 20.1 9.59998 19.6075 9.59998 19 9.59998 18.3925 9.10749 17.9 8.49998 17.9zM5.59998 19C5.59998 17.3983 6.89835 16.1 8.49998 16.1 10.1016 16.1 11.4 17.3983 11.4 19 11.4 20.6016 10.1016 21.9 8.49998 21.9 6.89835 21.9 5.59998 20.6016 5.59998 19zM18 17.9C17.3925 17.9 16.9 18.3925 16.9 19 16.9 19.6075 17.3925 20.1 18 20.1 18.6075 20.1 19.1 19.6075 19.1 19 19.1 18.3925 18.6075 17.9 18 17.9zM15.1 19C15.1 17.3983 16.3983 16.1 18 16.1 19.6016 16.1 20.9 17.3983 20.9 19 20.9 20.6016 19.6016 21.9 18 21.9 16.3983 21.9 15.1 20.6016 15.1 19z" fill="#262F56"/></svg><svg viewBox="0 0 14 9" fill="none" id="svg-arrow-down"><path fill-rule="evenodd" clip-rule="evenodd" d="M13.4697 0.863701C13.8212 1.21517 13.8212 1.78502 13.4697 2.13649L7.63642 7.96983C7.46763 8.13861 7.23871 8.23343 7.00002 8.23343C6.76132 8.23343 6.53241 8.13861 6.36362 7.96983L0.530291 2.13649C0.178819 1.78502 0.178819 1.21517 0.530291 0.863701C0.881763 0.51223 1.45161 0.51223 1.80308 0.863702L7.00002 6.06064L12.197 0.863702C12.5484 0.51223 13.1183 0.51223 13.4697 0.863701Z" fill="#3A3A3A"/></svg><svg viewBox="0 0 16 12" fill="none" id="svg-arrow-link"><path d="M15.3652 6.56003L10.3852 11.56C10.2252 11.72 10.0251 11.8 9.82515 11.8C9.62515 11.8 9.42515 11.72 9.26515 11.56C8.94515 11.24 8.94515 10.74 9.26515 10.42L12.8852 6.78003H1.20515C0.765151 6.78003 0.405151 6.42003 0.405151 5.98003C0.405151 5.54003 0.765151 5.18003 1.20515 5.18003H12.8852L9.26515 1.54004C8.94515 1.22004 8.94515 0.720034 9.26515 0.400034C9.58515 0.0800342 10.0852 0.0800342 10.4052 0.400034L15.3852 5.40003C15.6852 5.74003 15.6852 6.26003 15.3652 6.56003Z" fill="#000"/></svg><svg viewBox="0 0 24 21" fill="none" id="svg-favorite"><path fill-rule="evenodd" clip-rule="evenodd" d="M11.9996 18.0225C7.35982 15.3882 4.76416 12.7625 3.50744 10.4738C2.22425 8.13692 2.3302 6.15446 3.05171 4.73895C4.52988 1.83897 8.73571 0.911128 11.2936 4.14622L11.9995 5.03906L12.7055 4.14626C15.2638 0.911056 19.4699 1.83903 20.948 4.73895C21.6695 6.15444 21.7754 8.13689 20.4921 10.4738C19.2353 12.7625 16.6395 15.3882 11.9996 18.0225ZM11.9996 2.24505C8.5199 -1.1439 3.33722 0.215176 1.44802 3.92152C0.419533 5.93927 0.400427 8.55521 1.92965 11.3402C3.44655 14.1027 6.47805 17.0306 11.5642 19.8418L11.9996 20.0824L12.4349 19.8418C17.5213 17.0306 20.5529 14.1027 22.0699 11.3402C23.5992 8.55523 23.5802 5.93929 22.5517 3.92152C20.6625 0.215111 15.4796 -1.14385 11.9996 2.24505Z" fill="#262F56"/></svg><svg viewBox="0 0 24 24" id="svg-location"><path d="M12 0c-4.198 0-8 3.403-8 7.602 0 4.198 3.469 9.21 8 16.398 4.531-7.188 8-12.2 8-16.398 0-4.199-3.801-7.602-8-7.602zm0 11c-1.657 0-3-1.343-3-3s1.343-3 3-3 3 1.343 3 3-1.343 3-3 3z"/></svg><svg viewBox="0 0 16 16" fill="none" id="svg-phone"><path d="M11.4307 11.0668L10.9152 11.8401C10.8123 11.9944 10.6762 12.1261 10.4969 12.1735C9.90946 12.3287 8.3499 12.3988 5.9755 10.0244C3.60111 7.65004 3.67119 6.09046 3.82641 5.50302C3.8738 5.32368 4.00549 5.1876 4.15983 5.0847L4.93308 4.5692C5.50878 4.1854 5.66435 3.40757 5.28055 2.83187L3.82014 0.64126C3.48514 0.138762 2.83933 -0.0532187 2.28423 0.18468L1.62544 0.467021C1.12498 0.681503 0.716742 1.06643 0.47324 1.55343C0.269804 1.96031 0.112126 2.38877 0.0907621 2.84317C0.0234363 4.27515 0.337433 7.80312 4.26713 11.7328C8.19682 15.6625 11.7248 15.9765 13.1568 15.9092C13.6111 15.8878 14.0396 15.7301 14.4465 15.5267C14.9335 15.2832 15.3184 14.8749 15.5329 14.3745L15.8152 13.7157C16.0531 13.1606 15.8612 12.5148 15.3587 12.1798L13.168 10.7194C12.5923 10.3356 11.8145 10.4911 11.4307 11.0668Z" fill="#898989"/></svg><svg viewBox="0 0 16 16" fill="none" id="svg-search"><path fill-rule="evenodd" clip-rule="evenodd" d="M6.75002 2.23335C4.25553 2.23335 2.23335 4.25553 2.23335 6.75002C2.23335 9.2445 4.25553 11.2667 6.75002 11.2667C7.99751 11.2667 9.12544 10.7621 9.94378 9.94378C10.7621 9.12544 11.2667 7.99751 11.2667 6.75002C11.2667 4.25553 9.2445 2.23335 6.75002 2.23335ZM0.43335 6.75002C0.43335 3.26142 3.26142 0.43335 6.75002 0.43335C10.2386 0.43335 13.0667 3.26142 13.0667 6.75002C13.0667 8.16934 12.5978 9.48028 11.8076 10.5348L15.3031 14.0303C15.6545 14.3818 15.6545 14.9516 15.3031 15.3031C14.9516 15.6545 14.3818 15.6545 14.0303 15.3031L10.5348 11.8076C9.48028 12.5978 8.16934 13.0667 6.75002 13.0667C3.26142 13.0667 0.43335 10.2386 0.43335 6.75002Z" fill="#333"/></svg><svg viewBox="0 0 18 18" fill="none" id="svg-send"><path d="M17.7825 0.217449C17.6813 0.116704 17.5534 0.046952 17.4139 0.0163941C17.2744 -0.0141638 17.1291 -0.00425714 16.995 0.0449493L0.495001 6.04495C0.352702 6.09892 0.230191 6.19491 0.143739 6.32016C0.0572872 6.44542 0.0109863 6.59401 0.0109863 6.7462C0.0109863 6.89839 0.0572872 7.04698 0.143739 7.17223C0.230191 7.29749 0.352702 7.39348 0.495001 7.44745L6.9375 10.0199L11.6925 5.24995L12.75 6.30745L7.9725 11.0849L10.5525 17.5275C10.6081 17.667 10.7043 17.7866 10.8286 17.8709C10.953 17.9551 11.0998 18.0001 11.25 17.9999C11.4016 17.9968 11.5486 17.9479 11.6718 17.8595C11.795 17.7711 11.8885 17.6475 11.94 17.5049L17.94 1.00495C17.9911 0.872257 18.0034 0.727772 17.9755 0.588342C17.9477 0.448912 17.8807 0.320282 17.7825 0.217449Z" fill="#fff"/></svg><svg viewBox="0 0 18 20" fill="none" id="svg-share"><path d="M15 14C14.212 14 13.5 14.31 12.966 14.807L5.91 10.7C5.96 10.47 6 10.24 6 10C6 9.76 5.96 9.53 5.91 9.3L12.96 5.19C13.5 5.69 14.21 6 15 6C16.66 6 18 4.66 18 3C18 1.34 16.66 0 15 0C13.34 0 12 1.34 12 3C12 3.24 12.04 3.47 12.09 3.7L5.04 7.81C4.5 7.31 3.79 7 3 7C1.34 7 0 8.34 0 10C0 11.66 1.34 13 3 13C3.79 13 4.5 12.69 5.04 12.19L12.088 16.308C12.0317 16.5344 12.0022 16.7667 12 17C12 17.5933 12.1759 18.1734 12.5056 18.6667C12.8352 19.1601 13.3038 19.5446 13.8519 19.7716C14.4001 19.9987 15.0033 20.0581 15.5853 19.9424C16.1672 19.8266 16.7018 19.5409 17.1213 19.1213C17.5409 18.7018 17.8266 18.1672 17.9424 17.5853C18.0581 17.0033 17.9987 16.4001 17.7716 15.8519C17.5446 15.3038 17.1601 14.8352 16.6667 14.5056C16.1734 14.1759 15.5933 14 15 14Z" fill="#fff"/></svg></svg>